<svg width="2002" height="3976" viewBox="0 0 2002 3976" fill="none" xmlns="http://www.w3.org/2000/svg">
<circle cx="1009" cy="2983" r="993" fill="url(#paint0_linear)"/>
<circle cx="1001" cy="1001" r="988" stroke="#FF0000" stroke-width="26"/>
<path d="M672.801 3232.8C716.801 3334.4 765.601 3469.6 770.401 3580C861.601 3667.2 925.601 3442.4 684.001 3228.8L672.801 3232.8ZM1229.6 3735.2H1143.2V3610.4C1220 3504 1296 3370.4 1337.6 3283.2C1356 3284.8 1366.4 3277.6 1370.4 3268L1244 3225.6C1221.6 3320.8 1182.4 3450.4 1143.2 3559.2V3106.4C1162.4 3104 1167.2 3096.8 1168.8 3085.6L1051.2 3074.4V3735.2H964.001V3105.6C982.401 3103.2 988.001 3096 989.601 3084.8L871.201 3073.6V3735.2H636.001L642.401 3758.4H1360C1372 3758.4 1380.8 3754.4 1383.2 3745.6C1347.2 3709.6 1284 3656.8 1284 3656.8L1229.6 3735.2Z" fill="#FFF"/>
<path d="M1217.6 2894.8H1068.8V2594H1296C1307.2 2594 1316 2590 1318.4 2582C1281.6 2549.2 1219.2 2501.2 1219.2 2501.2L1164 2572.4H1068.8V2314H1325.6C1337.6 2314 1345.6 2310 1348 2301.2C1308.8 2267.6 1245.6 2218.8 1245.6 2218.8L1188.8 2290.8H669.601L676.001 2314H966.401V2894.8H844.801V2511.6C866.401 2507.6 872.801 2499.6 874.401 2488.4L744.001 2477.2V2894.8H628.801L635.201 2918H1356.8C1368.8 2918 1377.6 2914 1380 2905.2C1340 2870.8 1275.2 2822 1275.2 2822L1217.6 2894.8Z" fill="#FFF"/>
<path d="M1045.2 1700V1431.2H1244.4V1700H1045.2ZM1244.4 1146.4V1408H1045.2V1146.4H1244.4ZM753.2 1558.4V1136H827.6C816.4 1199.2 794.8 1292 778.8 1344C822.8 1396 838.8 1456 838.8 1509.6C838.8 1533.6 832.4 1547.2 821.2 1553.6C814.8 1556.8 810 1558.4 802 1558.4H753.2ZM1287.6 1068L1239.6 1123.2H1055.6L954.8 1084.8V1142.4L871.6 1065.6L822 1113.6H763.6L665.2 1075.2V1807.2H681.2C725.2 1807.2 753.2 1785.6 753.2 1778.4V1568C772.4 1572 786 1580 791.6 1588.8C798.8 1601.6 802.8 1636 802.8 1664C896.4 1662.4 926.8 1613.6 926.8 1537.6C926.8 1472.8 889.2 1393.6 799.6 1342.4C844.4 1292.8 898 1211.2 927.6 1162.4C939.6 1162.4 948.4 1160.8 954.8 1158.4V1805.6H970.8C1017.2 1805.6 1045.2 1786.4 1045.2 1779.2V1722.4H1244.4V1793.6H1260.4C1306 1793.6 1338 1771.2 1338 1765.6V1156C1357.2 1152.8 1367.6 1145.6 1374 1138.4L1287.6 1068Z" fill="#FF0000"/>
<path d="M1194.8 470.8C1213.2 471.6 1221.2 464.4 1224.4 454L1107.6 426.8C1105.2 580.4 1098 730 1023.6 842C990 813.2 941.2 776.4 941.2 776.4L894 836.4H753.2V315.6H1001.2C1013.2 315.6 1022 311.6 1023.6 302.8C992.4 274 939.6 232.4 939.6 232.4L892.4 293.2H764.4L663.6 244.4V825.2C650.8 832.4 637.2 842.8 628.4 851.6L726.8 904.4L758.8 859.6H1010.8C985.2 893.2 951.6 923.6 910 948.4L918 958.8C1108.4 884.4 1162 743.6 1182.8 590.8C1195.6 753.2 1228.4 889.2 1313.2 958.8C1321.2 904.4 1346.8 873.2 1390 863.6L1390.8 854C1258.8 787.6 1208.4 673.2 1192.4 502L1194.8 470.8ZM774 794C816.4 751.6 850 702 877.2 648.4C887.6 679.6 894.8 710 898 738C962.8 795.6 1010 692.4 921.2 548.4C940.4 495.6 954.8 442.8 965.2 396.4C986.8 395.6 993.2 389.2 996.4 379.6L883.6 351.6C880.4 390 875.6 432.4 867.6 477.2C842 447.6 810.8 418 773.2 387.6L761.2 392.4C790 443.6 822.8 504.4 848.4 568.4C829.2 646.8 802 725.2 764.4 786.8L774 794ZM1314.8 323.6L1270 369.2H1105.2C1120.4 333.2 1134.8 295.6 1147.6 256.4C1166 256.4 1174.8 249.2 1178.8 238.8L1052.4 204.4C1036.4 334 1000.4 477.2 963.6 571.6L974.8 577.2C1021.2 526.8 1061.2 464.4 1094.8 391.6H1278C1273.2 436.4 1263.6 498.8 1255.6 539.6L1263.6 544.4C1298 508.4 1339.6 450 1363.6 409.2C1380.4 407.6 1388.4 406.8 1394.8 399.6L1314.8 323.6Z" fill="#FF0000"/>
<defs>
<linearGradient id="paint0_linear" x1="1009" y1="1990" x2="1009" y2="3976" gradientUnits="userSpaceOnUse">
<stop stop-color="#FF0000"/>
<stop offset="1" stop-color="#FFFFFF" stop-opacity="0"/>
</linearGradient>
</defs>
</svg>
